<svg width="64" height="72" viewBox="0 0 64 72" fill="none" xmlns="http://www.w3.org/2000/svg">
<path fill-rule="evenodd" clip-rule="evenodd" d="M0.767822 15.4273C0.767822 13.0604 2.4734 11.1416 4.57734 11.1416H59.4345C61.5383 11.1416 63.2439 13.0604 63.2439 15.4273C63.2439 17.7942 61.5383 19.713 59.4345 19.713H4.57734C2.4734 19.713 0.767822 17.7942 0.767822 15.4273ZM9.91068 35.9988C9.91068 33.6318 11.6162 31.713 13.7202 31.713H50.2916C52.3954 31.713 54.101 33.6318 54.101 35.9988C54.101 38.3657 52.3954 40.2845 50.2916 40.2845H13.7202C11.6162 40.2845 9.91068 38.3657 9.91068 35.9988ZM19.0535 56.5702C19.0535 54.2032 20.7591 52.2844 22.863 52.2844H41.1488C43.2527 52.2844 44.9583 54.2032 44.9583 56.5702C44.9583 58.9371 43.2527 60.8559 41.1488 60.8559H22.863C20.7591 60.8559 19.0535 58.9371 19.0535 56.5702Z" fill="#011829"/>
</svg>
