<svg width="45" height="21" viewBox="0 0 45 21" fill="none" xmlns="http://www.w3.org/2000/svg">
<path d="M11.25 21C8.1375 21 5.48475 19.9759 3.29175 17.9277C1.09725 15.8809 0 13.405 0 10.5C0 7.595 1.09725 5.1184 3.29175 3.0702C5.48475 1.0234 8.1375 0 11.25 0H18C18.6375 0 19.1723 0.2009 19.6042 0.6027C20.0347 1.0059 20.25 1.505 20.25 2.1C20.25 2.695 20.0347 3.1934 19.6042 3.5952C19.1723 3.9984 18.6375 4.2 18 4.2H11.25C9.375 4.2 7.78125 4.8125 6.46875 6.0375C5.15625 7.2625 4.5 8.75 4.5 10.5C4.5 12.25 5.15625 13.7375 6.46875 14.9625C7.78125 16.1875 9.375 16.8 11.25 16.8H18C18.6375 16.8 19.1723 17.0009 19.6042 17.4027C20.0347 17.8059 20.25 18.305 20.25 18.9C20.25 19.495 20.0347 19.9934 19.6042 20.3952C19.1723 20.7984 18.6375 21 18 21H11.25ZM15.75 12.6C15.1125 12.6 14.5785 12.3984 14.148 11.9952C13.716 11.5934 13.5 11.095 13.5 10.5C13.5 9.905 13.716 9.4059 14.148 9.0027C14.5785 8.6009 15.1125 8.4 15.75 8.4H29.25C29.8875 8.4 30.4223 8.6009 30.8542 9.0027C31.2847 9.4059 31.5 9.905 31.5 10.5C31.5 11.095 31.2847 11.5934 30.8542 11.9952C30.4223 12.3984 29.8875 12.6 29.25 12.6H15.75ZM27 21C26.3625 21 25.8285 20.7984 25.398 20.3952C24.966 19.9934 24.75 19.495 24.75 18.9C24.75 18.305 24.966 17.8059 25.398 17.4027C25.8285 17.0009 26.3625 16.8 27 16.8H33.75C35.625 16.8 37.2188 16.1875 38.5312 14.9625C39.8438 13.7375 40.5 12.25 40.5 10.5C40.5 8.75 39.8438 7.2625 38.5312 6.0375C37.2188 4.8125 35.625 4.2 33.75 4.2H27C26.3625 4.2 25.8285 3.9984 25.398 3.5952C24.966 3.1934 24.75 2.695 24.75 2.1C24.75 1.505 24.966 1.0059 25.398 0.6027C25.8285 0.2009 26.3625 0 27 0H33.75C36.8625 0 39.516 1.0234 41.7105 3.0702C43.9035 5.1184 45 7.595 45 10.5C45 13.405 43.9035 15.8809 41.7105 17.9277C39.516 19.9759 36.8625 21 33.75 21H27Z" fill="black"/>
</svg>
